<mxfile host="65bd71144e">
    <diagram id="Zj3-93L6mgxk9kNFKD07" name="Page-1">
        <mxGraphModel dx="1155" dy="563" grid="1" gridSize="10" guides="1" tooltips="1" connect="1" arrows="1" fold="1" page="1" pageScale="1" pageWidth="827" pageHeight="1169" math="0" shadow="0">
            <root>
                <mxCell id="0"/>
                <mxCell id="1" parent="0"/>
                <mxCell id="2" value="auth&lt;br&gt;isauth" style="ellipse;whiteSpace=wrap;html=1;" vertex="1" parent="1">
                    <mxGeometry x="10" y="1050" width="120" height="50" as="geometry"/>
                </mxCell>
                <mxCell id="3" value="DB api&lt;br&gt;user info" style="ellipse;whiteSpace=wrap;html=1;" vertex="1" parent="1">
                    <mxGeometry x="330" y="1050" width="120" height="50" as="geometry"/>
                </mxCell>
                <mxCell id="4" value="/point/[pointID]&lt;br&gt;&amp;lt;Point&amp;gt;" style="ellipse;whiteSpace=wrap;html=1;dashed=1;" vertex="1" parent="1">
                    <mxGeometry x="170" y="1050" width="120" height="50" as="geometry"/>
                </mxCell>
            </root>
        </mxGraphModel>
    </diagram>
</mxfile>